<svg xmlns="http://www.w3.org/2000/svg" width="1200" height="700" viewBox="0 0 1200 700" fill="none">
  <rect width="1200" height="700" rx="20" fill="#F9FAFB"/>
  <rect x="120" y="42" width="960" height="616" rx="14" fill="white" stroke="#D1D5DB"/>
  <rect x="120" y="42" width="960" height="10" fill="#0F766E"/>
  <rect x="172" y="98" width="440" height="18" rx="6" fill="#111827"/>
  <rect x="172" y="126" width="330" height="10" rx="5" fill="#6B7280"/>
  <rect x="172" y="170" width="210" height="13" rx="6" fill="#111827"/>
  <rect x="172" y="194" width="860" height="9" rx="4.5" fill="#D1D5DB"/>
  <rect x="172" y="211" width="830" height="9" rx="4.5" fill="#D1D5DB"/>
  <rect x="172" y="228" width="850" height="9" rx="4.5" fill="#D1D5DB"/>
  <rect x="172" y="270" width="250" height="13" rx="6" fill="#111827"/>
  <rect x="172" y="294" width="860" height="9" rx="4.5" fill="#D1D5DB"/>
  <rect x="172" y="311" width="790" height="9" rx="4.5" fill="#D1D5DB"/>
  <rect x="172" y="328" width="840" height="9" rx="4.5" fill="#D1D5DB"/>
  <rect x="172" y="370" width="220" height="13" rx="6" fill="#111827"/>
  <rect x="172" y="394" width="860" height="9" rx="4.5" fill="#D1D5DB"/>
  <rect x="172" y="411" width="810" height="9" rx="4.5" fill="#D1D5DB"/>
  <rect x="172" y="428" width="840" height="9" rx="4.5" fill="#D1D5DB"/>
</svg>
