<svg xmlns="http://www.w3.org/2000/svg" width="1200" height="700" viewBox="0 0 1200 700" fill="none">
  <rect width="1200" height="700" rx="20" fill="#F8FAFC"/>
  <rect x="46" y="46" width="1108" height="608" rx="14" fill="white" stroke="#CBD5E1"/>
  <rect x="46" y="46" width="1108" height="12" fill="#2563EB"/>
  <rect x="88" y="96" width="520" height="20" rx="6" fill="#0F172A"/>
  <rect x="88" y="128" width="340" height="12" rx="6" fill="#64748B"/>
  <rect x="88" y="172" width="710" height="10" rx="5" fill="#CBD5E1"/>
  <rect x="88" y="190" width="680" height="10" rx="5" fill="#CBD5E1"/>
  <rect x="88" y="208" width="700" height="10" rx="5" fill="#CBD5E1"/>
  <rect x="88" y="248" width="660" height="16" rx="6" fill="#1E293B"/>
  <rect x="88" y="276" width="710" height="10" rx="5" fill="#CBD5E1"/>
  <rect x="88" y="294" width="650" height="10" rx="5" fill="#CBD5E1"/>
  <rect x="88" y="312" width="700" height="10" rx="5" fill="#CBD5E1"/>
  <rect x="860" y="172" width="250" height="440" rx="10" fill="#F1F5F9" stroke="#CBD5E1"/>
  <rect x="885" y="198" width="150" height="14" rx="6" fill="#2563EB"/>
  <rect x="885" y="226" width="190" height="9" rx="4.5" fill="#94A3B8"/>
  <rect x="885" y="244" width="170" height="9" rx="4.5" fill="#94A3B8"/>
  <rect x="885" y="282" width="150" height="14" rx="6" fill="#2563EB"/>
  <rect x="885" y="310" width="190" height="9" rx="4.5" fill="#94A3B8"/>
  <rect x="885" y="328" width="170" height="9" rx="4.5" fill="#94A3B8"/>
</svg>
