<svg xmlns="http://www.w3.org/2000/svg" width="1200" height="700" viewBox="0 0 1200 700" fill="none">
  <rect width="1200" height="700" rx="20" fill="#F8FAFC"/>
  <rect x="50" y="40" width="1100" height="620" rx="14" fill="white" stroke="#CBD5E1"/>
  <rect x="50" y="40" width="280" height="620" fill="#EEF2FF"/>
  <rect x="50" y="40" width="280" height="10" fill="#1D4ED8"/>
  <rect x="86" y="90" width="190" height="16" rx="6" fill="#1E3A8A"/>
  <rect x="86" y="118" width="160" height="10" rx="5" fill="#64748B"/>
  <rect x="86" y="154" width="170" height="12" rx="6" fill="#1E3A8A"/>
  <rect x="86" y="176" width="210" height="8" rx="4" fill="#94A3B8"/>
  <rect x="86" y="192" width="200" height="8" rx="4" fill="#94A3B8"/>
  <rect x="86" y="228" width="170" height="12" rx="6" fill="#1E3A8A"/>
  <rect x="86" y="250" width="210" height="8" rx="4" fill="#94A3B8"/>
  <rect x="86" y="266" width="200" height="8" rx="4" fill="#94A3B8"/>
  <rect x="370" y="92" width="430" height="20" rx="6" fill="#0F172A"/>
  <rect x="370" y="124" width="320" height="10" rx="5" fill="#64748B"/>
  <rect x="370" y="170" width="280" height="14" rx="6" fill="#111827"/>
  <rect x="370" y="194" width="740" height="9" rx="4.5" fill="#CBD5E1"/>
  <rect x="370" y="211" width="700" height="9" rx="4.5" fill="#CBD5E1"/>
  <rect x="370" y="228" width="730" height="9" rx="4.5" fill="#CBD5E1"/>
  <rect x="370" y="270" width="280" height="14" rx="6" fill="#111827"/>
  <rect x="370" y="294" width="740" height="9" rx="4.5" fill="#CBD5E1"/>
  <rect x="370" y="311" width="700" height="9" rx="4.5" fill="#CBD5E1"/>
  <rect x="370" y="328" width="730" height="9" rx="4.5" fill="#CBD5E1"/>
</svg>
