<svg xmlns="http://www.w3.org/2000/svg" viewBox="0 0 24 24"><path d="M8.84 10.835H6.875V8.976h1.783c1.878 0 1.646 1.859.182 1.859m5.789 1.058h2.624c-.115-1.687-2.36-1.81-2.624 0m-5.9.396H6.875v1.947h1.824c1.782-.001 1.673-1.947.03-1.947M24 12c0 6.627-5.373 12-12 12S0 18.627 0 12 5.373 0 12 0s12 5.373 12 12m-13.357-.733c1.668-.853 1.607-3.981-1.587-4.028H5v8.73h3.771c3.958 0 3.891-3.967 1.872-4.702M14 8.101h4v-.875h-4zm4.943 3.693c-.545-3.505-6.053-3.711-6.053.872 0 4.526 5.18 3.818 5.949 1.56h-1.848c-.645.748-2.508.531-2.404-1.184h4.41c.009-.555-.009-.953-.054-1.248"/></svg>