<svg xmlns="http://www.w3.org/2000/svg" viewBox="0 0 42 42" xml:space="preserve"><path d="M21 1C9.954 1 1 9.954 1 21s8.954 20 20 20 20-8.954 20-20S32.046 1 21 1m0 2.898c4.357 0 8.334 1.63 11.354 4.312-2.219 2.927-5.59 4.876-8.968 6.195a89 89 0 0 0-6.415-10.03A17 17 0 0 1 21 3.898m-7.276 1.621c2.229 3.335 4.389 6.428 6.363 9.929-4.991 1.293-10.629 2.069-15.838 2.082 1.098-5.328 4.677-9.752 9.475-12.011m20.527 4.669a17.03 17.03 0 0 1 3.851 10.699c-3.956-.779-7.891-.984-11.896-.58-.451-1.123-.996-2.189-1.519-3.34 3.453-1.393 7.145-3.777 9.564-6.779m-12.775 7.906c.428.911.924 1.876 1.389 2.863-5.57 2.456-11.494 5.738-14.57 11.492A17.04 17.04 0 0 1 3.906 20.5c5.965-.029 11.82-.775 17.57-2.406m9.037 4.663a29.2 29.2 0 0 1 7.376.95 17.1 17.1 0 0 1-7.347 11.487c-.918-4.175-1.793-8.17-3.34-12.198a23 23 0 0 1 3.311-.239m7.465.31q-.017.146-.037.291.02-.146.037-.291m-13.941.711c1.577 4.072 2.814 8.582 3.644 12.971A17.05 17.05 0 0 1 21 38.103a17.03 17.03 0 0 1-10.494-3.599c3.097-5.025 7.894-8.827 13.531-10.726"/></svg>